<?xml version="1.0" encoding="UTF-8" standalone="no"?>
<!-- Created with Inkscape (http://www.inkscape.org/) -->

<svg
   version="1.1"
   id="svg1367"
   xml:space="preserve"
   width="1152"
   height="1152"
   viewBox="0 0 1152 1152"
   sodipodi:docname="Karma Foundation_Logo_nobg.svg"
   inkscape:version="1.1.2 (b8e25be833, 2022-02-05)"
   xmlns:inkscape="http://www.inkscape.org/namespaces/inkscape"
   xmlns:sodipodi="http://sodipodi.sourceforge.net/DTD/sodipodi-0.dtd"
   xmlns="http://www.w3.org/2000/svg"
   xmlns:svg="http://www.w3.org/2000/svg"><defs
     id="defs1371"><radialGradient
       fx="0"
       fy="0"
       cx="0"
       cy="0"
       r="1"
       gradientUnits="userSpaceOnUse"
       gradientTransform="matrix(81.901215,0,0,-81.901215,220.71289,421.59082)"
       spreadMethod="pad"
       id="radialGradient1405"><stop
         style="stop-opacity:1;stop-color:#fad03d"
         offset="0"
         id="stop1395" /><stop
         style="stop-opacity:1;stop-color:#dc7a30"
         offset="0.51824389"
         id="stop1397" /><stop
         style="stop-opacity:1;stop-color:#dc7a30"
         offset="0.522167"
         id="stop1399" /><stop
         style="stop-opacity:1;stop-color:#c92028"
         offset="0.98654691"
         id="stop1401" /><stop
         style="stop-opacity:1;stop-color:#c92028"
         offset="1"
         id="stop1403" /></radialGradient><radialGradient
       fx="0"
       fy="0"
       cx="0"
       cy="0"
       r="1"
       gradientUnits="userSpaceOnUse"
       gradientTransform="matrix(81.918434,0,0,-81.918434,247.01953,421.54883)"
       spreadMethod="pad"
       id="radialGradient1425"><stop
         style="stop-opacity:1;stop-color:#00b3f0"
         offset="0"
         id="stop1421" /><stop
         style="stop-opacity:1;stop-color:#0064b1"
         offset="1"
         id="stop1423" /></radialGradient><clipPath
       clipPathUnits="userSpaceOnUse"
       id="clipPath1435"><path
         d="M 0,864 H 864 V 0 H 0 Z"
         id="path1433" /></clipPath><clipPath
       clipPathUnits="userSpaceOnUse"
       id="clipPath1443"><path
         d="M 162.051,484.473 H 338.318 V 358.625 H 162.051 Z"
         id="path1441" /></clipPath><clipPath
       clipPathUnits="userSpaceOnUse"
       id="clipPath1447"><path
         d="m 309.246,358.625 c -24.827,0 -49.573,23.444 -63.085,46.678 -22.021,37.866 -44.804,57.066 -67.715,57.066 -6.441,0 -11.958,-1.567 -16.395,-3.591 10.012,17.26 20.343,25.695 31.38,25.695 15.906,0 33.341,-16.194 53.531,-34.944 12.142,-11.278 24.699,-22.939 38.685,-32.794 12.74,-8.974 22.218,-13.338 28.976,-13.338 5.278,0 8.106,2.609 9.55,4.798 3.143,4.768 2.827,12.459 1.33,19.938 11.119,-18.26 15.538,-37.509 11.129,-51.604 -2.799,-8.946 -8.864,-14.597 -18.028,-16.797 -3.061,-0.734 -6.209,-1.107 -9.358,-1.107"
         id="path1445" /></clipPath><linearGradient
       x1="0"
       y1="0"
       x2="1"
       y2="0"
       gradientUnits="userSpaceOnUse"
       gradientTransform="matrix(176.26758,0,0,-176.26758,162.05078,421.54883)"
       spreadMethod="pad"
       id="linearGradient1459"><stop
         style="stop-opacity:1;stop-color:#ffffff"
         offset="0"
         id="stop1453" /><stop
         style="stop-opacity:1;stop-color:#ffffff"
         offset="0.41681441"
         id="stop1455" /><stop
         style="stop-opacity:0;stop-color:#ffffff"
         offset="1"
         id="stop1457" /></linearGradient><mask
       maskUnits="userSpaceOnUse"
       x="0"
       y="0"
       width="1"
       height="1"
       id="mask1461"><g
         id="g1471"><g
           id="g1469"><g
             id="g1467"><g
               id="g1465"><path
                 d="M -32768,32767 H 32767 V -32768 H -32768 Z"
                 style="fill:url(#linearGradient1459);stroke:none"
                 id="path1463" /></g></g></g></g></mask><linearGradient
       x1="0"
       y1="0"
       x2="1"
       y2="0"
       gradientUnits="userSpaceOnUse"
       gradientTransform="matrix(176.26758,0,0,-176.26758,162.05078,421.54883)"
       spreadMethod="pad"
       id="linearGradient1479"><stop
         style="stop-opacity:1;stop-color:#ffffff"
         offset="0"
         id="stop1473" /><stop
         style="stop-opacity:1;stop-color:#ffffff"
         offset="0.41681441"
         id="stop1475" /><stop
         style="stop-opacity:1;stop-color:#ffffff"
         offset="1"
         id="stop1477" /></linearGradient><linearGradient
       x1="0"
       y1="0"
       x2="1"
       y2="0"
       gradientUnits="userSpaceOnUse"
       gradientTransform="matrix(26.821289,0,0,-26.821289,261.77246,515.56445)"
       spreadMethod="pad"
       id="linearGradient1517"><stop
         style="stop-opacity:1;stop-color:#fad03d"
         offset="0"
         id="stop1511" /><stop
         style="stop-opacity:1;stop-color:#fad03d"
         offset="0.21412686"
         id="stop1513" /><stop
         style="stop-opacity:1;stop-color:#c92028"
         offset="1"
         id="stop1515" /></linearGradient><clipPath
       clipPathUnits="userSpaceOnUse"
       id="clipPath1527"><path
         d="M 0,864 H 864 V 0 H 0 Z"
         id="path1525" /></clipPath><clipPath
       clipPathUnits="userSpaceOnUse"
       id="clipPath1535"><path
         d="m 261.772,528.976 h 26.822 v -22.495 h -26.822 z"
         id="path1533" /></clipPath><linearGradient
       x1="0"
       y1="0"
       x2="1"
       y2="0"
       gradientUnits="userSpaceOnUse"
       gradientTransform="matrix(19.191919,0,0,-19.191919,179.13965,515.56445)"
       spreadMethod="pad"
       id="linearGradient1563"><stop
         style="stop-opacity:1;stop-color:#00b3f0"
         offset="0"
         id="stop1557" /><stop
         style="stop-opacity:1;stop-color:#00b3f0"
         offset="0.23553245"
         id="stop1559" /><stop
         style="stop-opacity:1;stop-color:#0064b1"
         offset="1"
         id="stop1561" /></linearGradient><clipPath
       clipPathUnits="userSpaceOnUse"
       id="clipPath1573"><path
         d="M 0,864 H 864 V 0 H 0 Z"
         id="path1571" /></clipPath><clipPath
       clipPathUnits="userSpaceOnUse"
       id="clipPath1581"><path
         d="m 179.14,528.976 h 26.821 V 506.481 H 179.14 Z"
         id="path1579" /></clipPath></defs><sodipodi:namedview
     id="namedview1369"
     pagecolor="#505050"
     bordercolor="#eeeeee"
     borderopacity="1"
     inkscape:pageshadow="0"
     inkscape:pageopacity="0"
     inkscape:pagecheckerboard="0"
     showgrid="false"
     inkscape:zoom="0.60329861"
     inkscape:cx="576"
     inkscape:cy="562.73957"
     inkscape:window-width="1920"
     inkscape:window-height="1001"
     inkscape:window-x="-9"
     inkscape:window-y="-9"
     inkscape:window-maximized="1"
     inkscape:current-layer="g1373" /><g
     id="g1373"
     inkscape:groupmode="layer"
     inkscape:label="Karma Foundation_Logo"
     transform="matrix(1.3333333,0,0,-1.3333333,0,1152)"><text
       transform="matrix(1,0,0,-0.99124761,377.7617,408.1387)"
       style="font-variant:normal;font-weight:bold;font-stretch:normal;font-size:102.406px;font-family:'Nueva Std';-inkscape-font-specification:NuevaStd-Bold;writing-mode:lr-tb;fill:#0064b1;fill-opacity:1;fill-rule:nonzero;stroke:none"
       id="text1377"><tspan
         x="0 73.937347 138.45332 203.2765 293.59888"
         y="0"
         sodipodi:role="line"
         id="tspan1375">KARMA</tspan></text><text
       transform="matrix(1,0,0,-0.99124599,516.6401,373.6611)"
       style="font-variant:normal;font-weight:normal;font-stretch:normal;font-size:35.0468px;font-family:'High Tide Sans';-inkscape-font-specification:HighTideSans;writing-mode:lr-tb;fill:#dc7a30;fill-opacity:1;fill-rule:nonzero;stroke:none"
       id="text1381"><tspan
         x="0 19.661255 47.102898 69.602943 94.135704 116.39042 140.11711 159.63817 168.61015 196.0518"
         y="0"
         sodipodi:role="line"
         id="tspan1379">FOUNDATION</tspan></text><g
       id="g1383"><g
         id="g1385"><g
           id="g1391"><g
             id="g1393"><path
               d="m 180.013,419.679 c -56.972,-40.14 -27.839,27.838 -27.839,27.838 v 0 c -32.371,-36.256 -36.255,-83.516 -3.884,-91.285 v 0 c 32.371,-7.769 65.866,26.578 76.395,47.261 v 0 c 46.551,91.446 90.874,44.024 90.874,44.024 v 0 c -13.812,29.596 -27.272,40.559 -41.257,40.556 v 0 c -27.314,-0.007 -56.609,-41.847 -94.289,-68.394"
               style="fill:url(#radialGradient1405);stroke:none"
               id="path1407" /></g></g></g></g><g
       id="g1409"><g
         id="g1411"><g
           id="g1417"><g
             id="g1419"><path
               d="m 152.174,447.517 c 0,0 39.289,44.68 90.875,-44.024 v 0 c 13.747,-23.638 44.024,-55.03 76.394,-47.261 v 0 c 32.371,7.769 28.487,55.029 -3.884,91.285 v 0 c 0,0 29.135,-67.978 -27.838,-27.838 v 0 c -37.68,26.547 -66.975,68.387 -94.29,68.394 v 0 c -13.985,0.003 -27.446,-10.96 -41.257,-40.556"
               style="fill:url(#radialGradient1425);stroke:none"
               id="path1427" /></g></g></g></g><g
       id="g1429"><g
         id="g1431"
         clip-path="url(#clipPath1435)"><g
           id="g1437"><g
             id="g1439" /><g
             id="g1497"><g
               clip-path="url(#clipPath1443)"
               id="g1495"><g
                 id="g1493"><g
                   clip-path="url(#clipPath1447)"
                   id="g1491"><g
                     id="g1489"><g
                       id="g1481" /><g
                       mask="url(#mask1461)"
                       id="g1487"><g
                         id="g1485"><path
                           d="m 309.246,358.625 c -24.827,0 -49.573,23.444 -63.085,46.678 -22.021,37.866 -44.804,57.066 -67.715,57.066 -6.441,0 -11.958,-1.567 -16.395,-3.591 10.012,17.26 20.343,25.695 31.38,25.695 15.906,0 33.341,-16.194 53.531,-34.944 12.142,-11.278 24.699,-22.939 38.685,-32.794 12.74,-8.974 22.218,-13.338 28.976,-13.338 5.278,0 8.106,2.609 9.55,4.798 3.143,4.768 2.827,12.459 1.33,19.938 11.119,-18.26 15.538,-37.509 11.129,-51.604 -2.799,-8.946 -8.864,-14.597 -18.028,-16.797 -3.061,-0.734 -6.209,-1.107 -9.358,-1.107"
                           style="fill:url(#linearGradient1479);stroke:none"
                           id="path1483" /></g></g></g></g></g></g></g></g></g></g><g
       id="g1499"><g
         id="g1501"><g
           id="g1507"><g
             id="g1509"><path
               d="m 261.772,515.565 c 0,-7.407 6.004,-13.411 13.41,-13.411 v 0 c 7.408,0 13.412,6.004 13.412,13.411 v 0 c 0,7.406 -6.004,13.411 -13.412,13.411 v 0 c -7.406,0 -13.41,-6.005 -13.41,-13.411"
               style="fill:url(#linearGradient1517);stroke:none"
               id="path1519" /></g></g></g></g><g
       id="g1521"><g
         id="g1523"
         clip-path="url(#clipPath1527)"><g
           id="g1529"><g
             id="g1531" /><g
             id="g1543"><g
               clip-path="url(#clipPath1535)"
               opacity="0.300003"
               id="g1541"><g
                 transform="translate(261.7725,515.5649)"
                 id="g1539"><path
                   d="m 0,0 c 0,7.406 6.004,13.411 13.41,13.411 7.407,0 13.411,-6.005 13.411,-13.411 0,0 0.045,-5.029 -9.368,-8.417 C 7.504,-11.997 0,0 0,0"
                   style="fill:#ffffff;fill-opacity:1;fill-rule:nonzero;stroke:none"
                   id="path1537" /></g></g></g></g></g></g><g
       id="g1545"><g
         id="g1547"><g
           id="g1553"><g
             id="g1555"><path
               d="m 179.14,515.565 c 0,-7.407 6.003,-13.411 13.41,-13.411 v 0 c 7.407,0 13.41,6.004 13.41,13.411 v 0 c 0,7.406 -6.003,13.411 -13.41,13.411 v 0 c -7.407,0 -13.41,-6.005 -13.41,-13.411"
               style="fill:url(#linearGradient1563);stroke:none"
               id="path1565" /></g></g></g></g><g
       id="g1567"><g
         id="g1569"
         clip-path="url(#clipPath1573)"><g
           id="g1575"><g
             id="g1577" /><g
             id="g1589"><g
               clip-path="url(#clipPath1581)"
               opacity="0.300003"
               id="g1587"><g
                 transform="translate(179.1396,515.5649)"
                 id="g1585"><path
                   d="m 0,0 c 0,7.406 6.004,13.411 13.411,13.411 7.406,0 13.41,-6.005 13.41,-13.411 0,0 0.046,-5.029 -9.368,-8.417 C 7.504,-11.997 0,0 0,0"
                   style="fill:#ffffff;fill-opacity:1;fill-rule:nonzero;stroke:none"
                   id="path1583" /></g></g></g></g></g></g><text
       transform="matrix(1,0,0,-1,518.3916,353.1143)"
       style="font-style:italic;font-variant:normal;font-weight:bold;font-stretch:normal;font-size:14.2348px;font-family:Georgia;-inkscape-font-specification:Georgia-BoldItalic;writing-mode:lr-tb;fill:#c92028;fill-opacity:1;fill-rule:nonzero;stroke:none"
       id="text1593"><tspan
         x="0 9.7366028 17.337986 22.547924 31.786308 41.024693 48.953476 56.554859 61.764797 71.586807 80.825195 84.440834 90.860725 100.68274 106.1062 111.31614 121.13815 126.34808 132.284 140.21278 143.82841 153.87819 162.93152 170.29091 175.50085 181.43677 186.6467 195.3584 200.56833 206.50424"
         y="0"
         sodipodi:role="line"
         id="tspan1591">Triggering Infinite Positivity</tspan></text></g></svg>
